<?xml version="1.0" encoding="UTF-8"?>
<svg version="1.1" xmlns="http://www.w3.org/2000/svg" width="896" height="281">
<path d="M0 0 C295.68 0 591.36 0 896 0 C896 92.73 896 185.46 896 281 C600.32 281 304.64 281 0 281 C0 188.27 0 95.54 0 0 Z " fill="#FEFEFE" transform="translate(0,0)"/>
<path d="M0 0 C20.76782865 -0.40544568 38.23194542 6.51316756 53.44140625 20.734375 C66.15979715 33.99628688 72.39273586 51.33930042 72.13085938 69.55126953 C71.55835069 85.01898973 66.06662541 99.76705692 56.7265625 112.1171875 C55.7365625 112.7771875 54.7465625 113.4371875 53.7265625 114.1171875 C53.34846436 113.43615967 52.97036621 112.75513184 52.58081055 112.0534668 C50.86375781 108.96761531 49.13901128 105.8861316 47.4140625 102.8046875 C46.81916016 101.73283203 46.22425781 100.66097656 45.61132812 99.55664062 C44.74604492 98.01459961 44.74604492 98.01459961 43.86328125 96.44140625 C43.33436279 95.49354248 42.80544434 94.54567871 42.26049805 93.5690918 C40.11327657 90.1368866 38.65399215 88.48561846 34.875 86.984375 C30.38435106 84.32118617 28.76525548 80.76467668 26.3515625 76.2421875 C25.39987626 74.52784634 24.44674217 72.81430816 23.4921875 71.1015625 C22.79512695 69.83602539 22.79512695 69.83602539 22.08398438 68.54492188 C20.17888619 65.13767434 18.16033708 61.80819983 16.1015625 58.4921875 C15.46992188 57.46867187 14.83828125 56.44515625 14.1875 55.390625 C12.91761767 53.23737621 12.91761767 53.23737621 11.7265625 52.1171875 C9.38503409 51.99234596 7.07148665 51.93119459 4.72827148 51.91186523 C3.99660767 51.90196564 3.26494385 51.89206604 2.5111084 51.88186646 C0.08165778 51.85016367 -2.34781243 51.82545957 -4.77734375 51.80078125 C-6.45743837 51.78021928 -8.13752773 51.75922302 -9.81761169 51.73780823 C-14.24811553 51.68250924 -18.67866665 51.63313463 -23.10925293 51.58496094 C-27.62691475 51.5348029 -32.14450758 51.47908717 -36.66210938 51.42382812 C-45.5324932 51.3161509 -54.40293682 51.21472732 -63.2734375 51.1171875 C-62.96911192 49.67756948 -62.66050335 48.23885641 -62.35009766 46.80053711 C-62.09300522 45.59861977 -62.09300522 45.59861977 -61.83071899 44.37242126 C-58.22798716 29.79271143 -44.92922665 17.03564522 -32.5859375 9.4296875 C-22.11272885 3.59194237 -11.88810921 0.42558864 0 0 Z " fill="#F6B304" transform="translate(211.2734375,78.8828125)"/>
<path d="M0 0 C7.7019682 6.33548997 12.91133532 13.28394849 14.1328125 23.4296875 C14.49679707 33.74258363 12.13404955 40.79712212 5.4375 48.625 C-1.61891355 55.99323542 -8.88815989 59.264906 -19.1875 59.5625 C-24.48589081 59.45692808 -28.55494986 58.68118949 -33.25 56.25 C-34.24966797 55.75693359 -34.24966797 55.75693359 -35.26953125 55.25390625 C-42.48567691 51.26639937 -47.5290622 45.18881952 -50.1875 37.375 C-52.34970693 28.69931258 -52.28230832 19.36565852 -48.25 11.25 C-42.43585574 3.16692139 -35.26843917 -3.44960005 -25.30859375 -5.46875 C-16.18195047 -6.71565383 -7.62608125 -5.43267502 0 0 Z " fill="#043A64" transform="translate(464.25,168.75)"/>
<path d="M0 0 C4.62 0 9.24 0 14 0 C14.64367436 2.57469746 15.28733125 5.14939928 15.9309082 7.72412109 C16.47861639 9.91462735 17.02663256 12.10505662 17.57495117 14.29541016 C18.80833927 19.22386741 20.04006001 24.15262659 21.25390625 29.0859375 C21.52605957 30.18808594 21.52605957 30.18808594 21.80371094 31.3125 C22.28349472 33.25742006 22.76096263 35.20291098 23.23828125 37.1484375 C23.87618343 39.92006303 23.87618343 39.92006303 25 42 C25.1858667 41.35675781 25.3717334 40.71351563 25.56323242 40.05078125 C35.98434194 4.03131612 35.98434194 4.03131612 38 0 C42.62 0 47.24 0 52 0 C53.24961898 4.51537185 54.49453429 9.0320062 55.73535156 13.54980469 C56.15695339 15.08237559 56.57977627 16.61461119 57.00390625 18.14648438 C59.28573356 26.39120005 61.47559822 34.57391103 63 43 C63.66 43 64.32 43 65 43 C65.08636719 42.43796875 65.17273438 41.8759375 65.26171875 41.296875 C66.91722445 31.39421707 69.48507017 21.71162503 72 12 C72.31582031 10.77925781 72.63164063 9.55851563 72.95703125 8.30078125 C74.85620552 1.14379448 74.85620552 1.14379448 76 0 C78.18639453 -0.07258946 80.37500389 -0.08373783 82.5625 -0.0625 C84.35880859 -0.04896484 84.35880859 -0.04896484 86.19140625 -0.03515625 C87.11824219 -0.02355469 88.04507813 -0.01195312 89 0 C88.37310709 5.11616114 87.30312794 9.96602698 85.890625 14.92578125 C85.68193787 15.67224411 85.47325073 16.41870697 85.25823975 17.18778992 C84.59297341 19.56388024 83.9216539 21.93820831 83.25 24.3125 C82.81469196 25.8625145 82.37979317 27.412644 81.9453125 28.96289062 C81.07619879 32.06275935 80.20394683 35.16172268 79.33007812 38.26025391 C78.40660923 41.54089511 77.49520505 44.8246184 76.59179688 48.11083984 C76.36409607 48.93762741 76.13639526 49.76441498 75.90179443 50.61625671 C75.4656966 52.20189209 75.03125749 53.78798486 74.59869385 55.37458801 C73.11086298 60.77827404 73.11086298 60.77827404 72 63 C67.05 63 62.1 63 57 63 C54.0178294 54.20259673 51.25443111 45.34377958 48.66796875 36.421875 C48.44286621 35.64714844 48.21776367 34.87242187 47.98583984 34.07421875 C47.54172683 32.54123981 47.10057834 31.00739849 46.66259766 29.47265625 C45.86947025 25.95311782 45.86947025 25.95311782 44 23 C40.37480171 34.72687455 36.76303911 46.43696418 33.7265625 58.33203125 C33 61 33 61 32 63 C27.05 63 22.1 63 17 63 C13.73594489 52.54395905 10.65023188 42.04206976 7.6262207 31.5144043 C7.08094914 29.62010506 6.5330703 27.72655449 5.98266602 25.83374023 C5.17661708 23.06138063 4.37848467 20.28684813 3.58203125 17.51171875 C3.3372554 16.67509201 3.09247955 15.83846527 2.84028625 14.97648621 C1.41702766 9.97699592 0.51453375 5.17464399 0 0 Z " fill="#053B64" transform="translate(483,164)"/>
<path d="M0 0 C31 0 31 0 40 5 C45.12576164 10.38862121 46.53166453 14.84192296 46.375 22.17578125 C45.7811884 26.64792486 44.08382622 29.73973596 41 33 C38.26290424 35.0733794 35.54472677 37 32 37 C32.45439453 37.7520874 32.90878906 38.5041748 33.37695312 39.27905273 C35.05595674 42.06038679 36.73299514 44.842893 38.40869141 47.6262207 C39.13543921 48.83242696 39.86297686 50.03815769 40.59130859 51.2434082 C41.6358481 52.97222767 42.67734787 54.70288259 43.71875 56.43359375 C44.34716797 57.47572021 44.97558594 58.51784668 45.62304688 59.59155273 C47 62 47 62 47 63 C41.99975588 64.10235929 37.9494001 64.45661101 33 63 C28.83254776 58.85422004 26.4142229 53.26803461 23.95947266 47.99853516 C22.94457432 45.80241823 22.94457432 45.80241823 21.23046875 43.07421875 C20 41 20 41 20 39 C17.69 39 15.38 39 13 39 C13 46.92 13 54.84 13 63 C8.71 63 4.42 63 0 63 C0 42.21 0 21.42 0 0 Z " fill="#053A64" transform="translate(630,164)"/>
<path d="M0 0 C14 0 14 0 17.24609375 3.1640625 C18.02785908 4.62472488 18.75592796 6.11498305 19.4375 7.625 C20.29973968 9.26441085 21.16996062 10.89964147 22.046875 12.53125 C22.50513672 13.40910156 22.96339844 14.28695312 23.43554688 15.19140625 C26.33561994 20.39777963 29.78867826 25.23598213 33.1875 30.125 C35.435625 33.38375 37.68375 36.6425 40 40 C40.33 26.8 40.66 13.6 41 0 C45.29 0 49.58 0 54 0 C54 20.79 54 41.58 54 63 C49.38 63 44.76 63 40 63 C36.85991444 59.1933406 35.14510425 56.31808309 33 52 C31.45310476 49.4825914 29.80676092 47.03502768 28.16015625 44.58203125 C27.3971538 43.4212249 26.63556086 42.25949108 25.87524414 41.09692383 C24.94703857 39.68306396 24.01883301 38.2692041 23.0625 36.8125 C20.071875 32.254375 17.08125 27.69625 14 23 C13.67 36.2 13.34 49.4 13 63 C8.71 63 4.42 63 0 63 C0 42.21 0 21.42 0 0 Z " fill="#043C66" transform="translate(685,73)"/>
<path d="M0 0 C4.62 0 9.24 0 14 0 C17.14008556 3.8066594 18.85489575 6.68191691 21 11 C22.54689524 13.5174086 24.19323908 15.96497232 25.83984375 18.41796875 C26.6028462 19.5787751 27.36443914 20.74050892 28.12475586 21.90307617 C29.05296143 23.31693604 29.98116699 24.7307959 30.9375 26.1875 C33.928125 30.745625 36.91875 35.30375 40 40 C40.33 26.8 40.66 13.6 41 0 C44.96 0 48.92 0 53 0 C53 20.46 53 40.92 53 62 C40 62 40 62 36.89453125 59.24609375 C35.80957031 57.42822266 35.80957031 57.42822266 34.8125 55.4375 C34.01305758 54.05781711 33.21223493 52.67893322 32.41015625 51.30078125 C32.01715332 50.58873535 31.62415039 49.87668945 31.21923828 49.14306641 C29.24841784 45.67893708 26.99371277 42.41614625 24.75 39.125 C23.97250689 37.96190644 23.19643818 36.7978593 22.421875 35.6328125 C21.62265625 34.43398437 20.8234375 33.23515625 20 32 C18.02 29.03 16.04 26.06 14 23 C13.67 35.87 13.34 48.74 13 62 C8.71 62 4.42 62 0 62 C0 41.54 0 21.08 0 0 Z " fill="#033862" transform="translate(476,74)"/>
<path d="M0 0 C5.15625 -0.061875 10.3125 -0.12375 15.625 -0.1875 C17.24100098 -0.21481201 18.85700195 -0.24212402 20.52197266 -0.27026367 C22.44855713 -0.28150269 22.44855713 -0.28150269 24.4140625 -0.29296875 C25.7232666 -0.3086792 27.0324707 -0.32438965 28.38134766 -0.34057617 C35.12402348 0.29402326 39.37067395 3.56656738 43.578125 8.62109375 C46.81088274 14.02974613 46.37889525 19.86440862 45.3125 25.875 C42.47346609 32.63460455 38.53610163 35.26208474 32 38 C29.29283758 38.90238747 27.76223232 39.11851302 24.98828125 39.09765625 C23.96408081 39.09390991 23.96408081 39.09390991 22.91918945 39.09008789 C21.62887817 39.07643188 21.62887817 39.07643188 20.3125 39.0625 C17.569375 39.041875 14.82625 39.02125 12 39 C12 46.59 12 54.18 12 62 C8.04 62 4.08 62 0 62 C0 41.54 0 21.08 0 0 Z " fill="#013862" transform="translate(360,165)"/>
<path d="M0 0 C4.29 0 8.58 0 13 0 C13 8.58 13 17.16 13 26 C21.91 26 30.82 26 40 26 C40 17.75 40 9.5 40 1 C43.96 1 47.92 1 52 1 C52 21.46 52 41.92 52 63 C47.71 63 43.42 63 39 63 C39 54.42 39 45.84 39 37 C30.42 37 21.84 37 13 37 C13 45.58 13 54.16 13 63 C8.71 63 4.42 63 0 63 C0 42.21 0 21.42 0 0 Z " fill="#083D66" transform="translate(596,73)"/>
<path d="M0 0 C4.29 0 8.58 0 13 0 C13.0093457 1.27117676 13.01869141 2.54235352 13.02832031 3.85205078 C13.0682865 8.58238362 13.13406414 13.31207062 13.20751953 18.04199219 C13.23569066 20.08650395 13.25692435 22.13112384 13.27099609 24.17578125 C13.29247887 27.12035322 13.3391569 30.06363041 13.390625 33.0078125 C13.39185364 33.9174173 13.39308228 34.82702209 13.39434814 35.76419067 C13.52490599 41.46119372 14.29902393 44.61020698 18 49 C21.41457004 51.59036348 24.83282171 51.43108741 29 51 C32.70390021 48.97333762 34.65363011 47.51955484 37 44 C37.3257721 41.92263083 37.3257721 41.92263083 37.31884766 39.62036133 C37.33871735 38.73967484 37.35858704 37.85898834 37.37905884 36.95161438 C37.39061005 36.00465195 37.40216125 35.05768951 37.4140625 34.08203125 C37.43342865 33.10965012 37.4527948 32.13726898 37.4727478 31.13542175 C37.5325555 28.02787056 37.5789339 24.92028235 37.625 21.8125 C37.66317867 19.706364 37.70223033 17.60024363 37.7421875 15.49414062 C37.83825811 10.32955395 37.92228491 5.16489418 38 0 C42.29 0 46.58 0 51 0 C51.09951 6.08312305 51.17177017 12.16576338 51.21972656 18.24951172 C51.23973625 20.31535098 51.26695283 22.38113437 51.30175781 24.44677734 C51.35074716 27.43080503 51.37307564 30.41407846 51.390625 33.3984375 C51.41127014 34.30927094 51.43191528 35.22010437 51.45318604 36.15853882 C51.45563614 43.29626093 50.15704046 50.38981096 45.32354736 55.91708374 C38.21578894 62.52248632 31.85111638 63.33210315 22.40234375 63.30078125 C15.26401725 62.66972368 9.8058585 59.88602589 4.8125 54.75 C0.24545574 47.82069146 -0.42878313 41.67353508 -0.29296875 33.59375 C-0.28872391 32.6284436 -0.28447906 31.66313721 -0.28010559 30.6685791 C-0.26343097 27.6120917 -0.22579992 24.55628515 -0.1875 21.5 C-0.17243866 19.41667625 -0.1587528 17.33334207 -0.14648438 15.25 C-0.11356424 10.16640785 -0.06186016 5.08331901 0 0 Z " fill="#083B65" transform="translate(413,73)"/>
<path d="M0 0 C5.48087332 -0.12366591 10.96093357 -0.21436943 16.44287109 -0.2746582 C18.30727281 -0.29979147 20.1715761 -0.33390383 22.03564453 -0.37719727 C24.71671831 -0.43790352 27.39648902 -0.46622058 30.078125 -0.48828125 C30.91055725 -0.51408768 31.7429895 -0.5398941 32.60064697 -0.56648254 C38.38478621 -0.56928125 38.38478621 -0.56928125 41.34130859 2.16650391 C41.88867676 3.10155762 42.43604492 4.03661133 43 5 C43.57282715 5.92256592 44.1456543 6.84513184 44.73583984 7.7956543 C45.58976318 9.2947937 45.58976318 9.2947937 46.4609375 10.82421875 C47.09773438 11.93603516 47.73453125 13.04785156 48.390625 14.19335938 C49.05228741 15.35795699 49.71374484 16.5226711 50.375 17.6875 C51.67364509 19.96271586 52.97311326 22.23746214 54.2734375 24.51171875 C54.89702148 25.60532715 55.52060547 26.69893555 56.16308594 27.82568359 C58.35961099 31.62143302 60.63964154 35.36129882 62.95556641 39.08520508 C64 41 64 41 64 43 C58.45042917 43.32296056 52.90637906 43.55788727 47.34960938 43.71411133 C45.4632236 43.77924271 43.57748828 43.86778972 41.69335938 43.98071289 C26.12661254 44.88987015 26.12661254 44.88987015 21.19287109 40.50537109 C19.07677434 37.09590452 17.53386657 33.70520652 16 30 C14.77010608 27.79668217 13.51255376 25.6085539 12.2265625 23.4375 C11.0231912 21.29326389 9.82265705 19.14743301 8.625 17 C7.70267578 15.36224609 7.70267578 15.36224609 6.76171875 13.69140625 C5.87806641 12.11166016 5.87806641 12.11166016 4.9765625 10.5 C4.45143066 9.5615625 3.92629883 8.623125 3.38525391 7.65625 C2.07763786 5.14887203 0.99800318 2.64378046 0 0 Z " fill="#023C66" transform="translate(162,180)"/>
<path d="M0 0 C5.48087332 -0.12366591 10.96093357 -0.21436943 16.44287109 -0.2746582 C18.30727281 -0.29979147 20.1715761 -0.33390383 22.03564453 -0.37719727 C24.71671831 -0.43790352 27.39648902 -0.46622058 30.078125 -0.48828125 C30.91055725 -0.51408768 31.7429895 -0.5398941 32.60064697 -0.56648254 C38.38955656 -0.56928356 38.38955656 -0.56928356 41.35717773 2.19824219 C41.89930908 3.12282227 42.44144043 4.04740234 43 5 C43.53729736 5.85150635 44.07459473 6.7030127 44.62817383 7.58032227 C45.14919678 8.48322998 45.67021973 9.3861377 46.20703125 10.31640625 C46.79419922 11.32896484 47.38136719 12.34152344 47.98632812 13.38476562 C48.8902832 14.95774414 48.8902832 14.95774414 49.8125 16.5625 C50.40353516 17.58408203 50.99457031 18.60566406 51.60351562 19.65820312 C52.79637655 21.72001835 53.98665036 23.78333254 55.17431641 25.84814453 C56.44015374 28.03348285 57.71943689 30.21106667 59.00927734 32.38232422 C59.64945801 33.46143066 60.28963867 34.54053711 60.94921875 35.65234375 C61.53405029 36.63066162 62.11888184 37.60897949 62.72143555 38.61694336 C64 41 64 41 64 43 C58.51912668 43.12366591 53.03906643 43.21436943 47.55712891 43.2746582 C45.69272719 43.29979147 43.8284239 43.33390383 41.96435547 43.37719727 C39.28328169 43.43790352 36.60351098 43.46622058 33.921875 43.48828125 C33.08944275 43.51408768 32.2570105 43.5398941 31.39935303 43.56648254 C25.62012594 43.56927887 25.62012594 43.56927887 22.67456055 40.86523438 C22.12195557 39.91970703 21.56935059 38.97417969 21 38 C20.39164307 37.00637451 19.78328613 36.01274902 19.15649414 34.98901367 C18.53895264 33.89306885 17.92141113 32.79712402 17.28515625 31.66796875 C16.94753769 31.07252762 16.60991913 30.47708649 16.2620697 29.86360168 C15.19138746 27.9738833 14.12660236 26.08093003 13.0625 24.1875 C11.65995591 21.70045848 10.25452261 19.21506742 8.84765625 16.73046875 C8.51287262 16.13740936 8.17808899 15.54434998 7.8331604 14.93331909 C5.96824017 11.64554278 4.03577132 8.42029321 1.99609375 5.23828125 C0 2 0 2 0 0 Z " fill="#023C66" transform="translate(116,180)"/>
<path d="M0 0 C33.49060447 -3.4656317 33.49060447 -3.4656317 41.94580078 1.85302734 C46.4235526 6.80019631 48.65157314 12.71968079 50.83154297 18.94970703 C52.7282213 23.90104406 55.53177589 28.2551969 58.3125 32.75 C59.233977 34.30214982 60.1475903 35.85901383 61.05078125 37.421875 C61.42887939 38.06737305 61.80697754 38.71287109 62.1965332 39.37792969 C63 41 63 41 63 43 C57.55593682 43.22311734 52.11455123 43.38606904 46.66699219 43.49438477 C44.81593464 43.53954435 42.9651964 43.60089139 41.11523438 43.67895508 C25.93073951 44.30347866 25.93073951 44.30347866 21.68920898 41.43994141 C20.04489468 39.04222515 19.06411641 36.70555777 18 34 C16.76757484 31.78478695 15.51192421 29.58239923 14.23828125 27.390625 C12.91828885 25.01666454 11.61689763 22.63255827 10.3125 20.25 C9.31476208 18.43544731 8.3158923 16.62152543 7.31620789 14.80804443 C6.41622874 13.17424456 5.51917943 11.53883177 4.62231445 9.90332031 C3.55459453 7.99251139 2.44426684 6.10479758 1.28979492 4.24511719 C0 2 0 2 0 0 Z " fill="#013C66" transform="translate(208,180)"/>
<path d="M0 0 C3.41151874 2.9034202 4.57722273 5.19012711 5.08984375 9.65625 C5.13109375 11.0175 5.17234375 12.37875 5.21484375 13.78125 C0.92484375 13.78125 -3.36515625 13.78125 -7.78515625 13.78125 C-8.44515625 12.13125 -9.10515625 10.48125 -9.78515625 8.78125 C-13.49529024 6.30782734 -15.39575887 6.39621514 -19.78515625 6.78125 C-22.30556052 7.73298938 -22.30556052 7.73298938 -23.78515625 9.78125 C-24.21917971 12.7574109 -24.47948374 14.75803055 -22.74609375 17.3125 C-19.80548806 19.51502538 -16.46103668 20.30083483 -12.97265625 21.28125 C-4.83486108 23.60633433 1.1057606 25.77450739 6.21484375 32.78125 C7.9321294 37.93310695 7.65285105 42.28687216 6.15234375 47.40625 C3.26714245 52.43208452 -0.17927799 55.71104402 -5.5625 57.921875 C-13.29314064 59.98337917 -22.03211218 60.07145884 -29.41015625 56.78125 C-33.91080229 54.13336991 -37.07236736 50.76636714 -38.78515625 45.78125 C-38.78515625 43.80125 -38.78515625 41.82125 -38.78515625 39.78125 C-34.49515625 39.78125 -30.20515625 39.78125 -25.78515625 39.78125 C-25.12515625 41.43125 -24.46515625 43.08125 -23.78515625 44.78125 C-21.92877803 47.06152649 -21.92877803 47.06152649 -19.03515625 47.046875 C-17.42640625 47.03914063 -17.42640625 47.03914063 -15.78515625 47.03125 C-14.71265625 47.03640625 -13.64015625 47.0415625 -12.53515625 47.046875 C-9.64153447 47.06152649 -9.64153447 47.06152649 -7.78515625 44.78125 C-7.54261812 42.57052023 -7.54261812 42.57052023 -7.66015625 40.15625 C-7.67820312 39.33898437 -7.69625 38.52171875 -7.71484375 37.6796875 C-7.73804688 37.05320313 -7.76125 36.42671875 -7.78515625 35.78125 C-13.60127004 33.74523777 -13.60127004 33.74523777 -19.55078125 32.16015625 C-26.51165178 30.59493257 -31.05740809 28.19820953 -35.78515625 22.78125 C-38.44875531 18.56388482 -38.43585009 13.63642715 -37.78515625 8.78125 C-36.05763347 3.29253839 -32.62023225 0.57850186 -27.78515625 -2.2734375 C-19.11932517 -6.36939672 -7.84119228 -5.35328663 0 0 Z " fill="#053A64" transform="translate(396.78515625,77.21875)"/>
<path d="M0 0 C2.90598546 2.64849308 5.23999412 5.47998825 7 9 C7 10.98 7 12.96 7 15 C2.71 15 -1.58 15 -6 15 C-6.66 13.35 -7.32 11.7 -8 10 C-11.81022313 7.45985125 -14.53470816 7.41393045 -19 8 C-21.12870693 8.96117905 -21.12870693 8.96117905 -22 11 C-22.5185492 14.97488016 -22.5185492 14.97488016 -20.96484375 18.53125 C-18.02134179 20.73156161 -14.67703636 21.51925995 -11.1875 22.5 C-3.04970483 24.82508433 2.89091685 26.99325739 8 34 C9.72565255 39.17695764 9.6858707 44.12288018 7.8125 49.25 C4.54749096 54.20380682 1.26391835 57.58337626 -4.49609375 59.49609375 C-12.7989103 61.16701939 -21.48022482 61.02845099 -29 57 C-32.87797285 53.97413777 -35.75303852 50.86314978 -37 46 C-37 44.35 -37 42.7 -37 41 C-32.71 41 -28.42 41 -24 41 C-23.525625 41.969375 -23.05125 42.93875 -22.5625 43.9375 C-21.29806053 46.80477437 -21.29806053 46.80477437 -20 48 C-17.64686445 48.07271741 -15.29166332 48.08370868 -12.9375 48.0625 C-11.64714844 48.05347656 -10.35679687 48.04445312 -9.02734375 48.03515625 C-7.52880859 48.01775391 -7.52880859 48.01775391 -6 48 C-6 44.7 -6 41.4 -6 38 C-12.42124097 34.97923782 -12.42124097 34.97923782 -19.1875 32.9375 C-26.47530152 31.14541766 -30.74996926 28.09124927 -35 22 C-36.53000855 17.40997435 -36.88564272 12.68893935 -35.3515625 8.03125 C-32.76937358 2.99929209 -28.54662349 -0.82522744 -23.13671875 -2.6171875 C-15.53549048 -3.97901633 -6.84338051 -3.89504661 0 0 Z " fill="#053A63" transform="translate(577,76)"/>
<path d="M0 0 C5.4809035 -0.09893328 10.96128645 -0.17149865 16.44287109 -0.21972656 C18.30722101 -0.23983261 20.17150794 -0.2671218 22.03564453 -0.30175781 C24.71662948 -0.35032121 27.39678023 -0.37297838 30.078125 -0.390625 C30.91055725 -0.41127014 31.7429895 -0.43191528 32.60064697 -0.45318604 C38.36928495 -0.455419 38.36928495 -0.455419 41.37084961 1.71191406 C43.06253094 4.08782257 44.57612675 6.44686646 45.98828125 9 C46.52686768 9.96470215 47.0654541 10.9294043 47.62036133 11.92333984 C48.17876709 12.9386377 48.73717285 13.95393555 49.3125 15 C50.4680931 17.07588665 51.62433745 19.1514109 52.78125 21.2265625 C53.61076172 22.71978027 53.61076172 22.71978027 54.45703125 24.24316406 C56.87658814 28.5662078 59.39231159 32.82872698 61.92578125 37.0859375 C63 39 63 39 63 40 C57.41351453 40.22307809 51.82963649 40.38605356 46.23974609 40.49438477 C44.34019813 40.53955043 42.44096146 40.60090169 40.54248047 40.67895508 C24.87501119 41.30680285 24.87501119 41.30680285 20.60083008 38.32788086 C18.98715913 35.95071303 18.01411657 33.68473236 17 31 C16.0128841 29.25537995 15.00028746 27.52497169 13.96484375 25.80859375 C12.95237806 24.02012211 11.9432821 22.22973881 10.9375 20.4375 C7.71937992 14.72234948 4.48638319 9.06277667 0.88500977 3.57836914 C0 2 0 2 0 0 Z " fill="#053D66" transform="translate(90,135)"/>
<path d="M0 0 C12.21 0 24.42 0 37 0 C37 3.63 37 7.26 37 11 C29.08 11 21.16 11 13 11 C13 15.95 13 20.9 13 26 C20.26 26 27.52 26 35 26 C35 29.63 35 33.26 35 37 C27.74 37 20.48 37 13 37 C13 41.95 13 46.9 13 52 C21.25 52 29.5 52 38 52 C38 55.63 38 59.26 38 63 C25.46 63 12.92 63 0 63 C0 42.21 0 21.42 0 0 Z " fill="#043A64" transform="translate(581,164)"/>
<path d="M0 0 C5.44412075 -0.19832862 10.88612446 -0.34318442 16.33300781 -0.43945312 C18.18396644 -0.47959284 20.03467282 -0.53412078 21.88476562 -0.60351562 C37.00099248 -1.15615188 37.00099248 -1.15615188 41.30859375 1.33520508 C42.98371185 3.46268407 43.93250707 5.510111 45 8 C46.25451071 10.17701546 47.52118205 12.34704766 48.796875 14.51171875 C49.79190275 16.29055431 50.7726896 18.07667987 51.75146484 19.86450195 C52.75579157 21.6980735 53.76972213 23.5260761 54.78515625 25.35351562 C60.13811085 35.045433 60.13811085 35.045433 62 40 C56.55593682 40.22311734 51.11455123 40.38606904 45.66699219 40.49438477 C43.81593464 40.53954435 41.9651964 40.60089139 40.11523438 40.67895508 C24.93918357 41.30313136 24.93918357 41.30313136 20.71118164 38.46191406 C19.07155717 36.06208231 18.08362582 33.69742494 17 31 C16.02460875 29.29832552 15.0473183 27.59744018 14.03729248 25.91609192 C12.94348338 24.09199789 11.88434727 22.25175545 10.83398438 20.40234375 C9.38848275 17.85775845 7.93802536 15.31616448 6.48242188 12.77734375 C5.78347483 11.55229969 5.08489341 10.32704693 4.38671875 9.1015625 C3.75983154 8.00150879 3.13294434 6.90145508 2.48706055 5.76806641 C1 3 1 3 0 0 Z " fill="#023C66" transform="translate(136,135)"/>
<path d="M0 0 C5.40714061 -0.32303689 10.80861038 -0.5579136 16.22314453 -0.71411133 C18.06105367 -0.77923155 19.89829559 -0.86777109 21.73388672 -0.98071289 C33.78876115 -1.70348208 33.78876115 -1.70348208 39 0 C43.11988323 3.72777059 44.88740893 7.93189812 47 13 C48.15744253 15.06898444 49.34152213 17.12334512 50.5546875 19.16015625 C51.6640413 21.12614891 52.77083853 23.09358648 53.875 25.0625 C54.4421875 26.06732422 55.009375 27.07214844 55.59375 28.10742188 C60.06176434 36.0429118 60.06176434 36.0429118 62 40 C56.48745891 40.42330493 50.98448592 40.72983002 45.45947266 40.93383789 C43.58605277 41.01887599 41.71374707 41.13458419 39.84423828 41.2824707 C27.49769359 42.23397775 27.49769359 42.23397775 22 40 C17.49392863 36.07367213 15.22592532 30.55557507 12.93927002 25.15103149 C11.6611816 22.22406865 10.05612233 19.54268323 8.3984375 16.81640625 C7.3896295 15.06567742 6.38177671 13.31439774 5.375 11.5625 C4.84777344 10.65435547 4.32054687 9.74621094 3.77734375 8.81054688 C3.28105469 7.94623047 2.78476563 7.08191406 2.2734375 6.19140625 C1.83435059 5.43029541 1.39526367 4.66918457 0.94287109 3.88500977 C0 2 0 2 0 0 Z " fill="#023C66" transform="translate(182,135)"/>
<path d="M0 0 C11.88 0 23.76 0 36 0 C36 3.3 36 6.6 36 10 C28.41 10 20.82 10 13 10 C13 14.95 13 19.9 13 25 C19.93 25 26.86 25 34 25 C34 28.3 34 31.6 34 35 C27.07 35 20.14 35 13 35 C13 40.28 13 45.56 13 51 C20.92 51 28.84 51 37 51 C37 54.63 37 58.26 37 62 C24.79 62 12.58 62 0 62 C0 41.54 0 21.08 0 0 Z " fill="#013862" transform="translate(751,74)"/>
<path d="M0 0 C5.45899632 3.18526802 8.24828372 7.16437274 10.95703125 12.83984375 C12.42113798 19.76107556 11.24370588 26.24313862 7.81640625 32.40234375 C5.24719606 36.10200642 1.73015598 38.35877115 -2.35546875 40.08984375 C-9.45741778 41.02516935 -14.63743917 40.43554623 -20.35546875 36.08984375 C-25.28691432 31.40825809 -27.36838273 26.50513564 -27.73046875 19.77734375 C-27.57545321 14.0320802 -25.80157496 8.77794442 -21.89453125 4.484375 C-15.52412138 -1.02910156 -8.12011468 -3.13762308 0 0 Z " fill="#FBFCFC" transform="translate(453.35546875,175.91015625)"/>
<path d="M0 0 C4.29 0 8.58 0 13 0 C13 20.79 13 41.58 13 63 C8.71 63 4.42 63 0 63 C0 42.21 0 21.42 0 0 Z " fill="#003E67" transform="translate(660,73)"/>
<path d="M0 0 C0.66 0 1.32 0 2 0 C3.41438406 1.57286684 4.75604401 3.21139996 6.0625 4.875 C9.85479203 9.61688682 13.78591979 14.16611097 17.87109375 18.65625 C20.40359598 21.44432585 22.89019128 24.26910467 25.359375 27.11328125 C26.48656191 28.4095462 27.62249517 29.69824126 28.765625 30.98046875 C29.59320313 31.91826172 29.59320313 31.91826172 30.4375 32.875 C30.93121094 33.42929688 31.42492187 33.98359375 31.93359375 34.5546875 C33 36 33 36 33 38 C30.23456804 39.51012131 27.46183193 41.00630148 24.6875 42.5 C23.90181641 42.92925781 23.11613281 43.35851562 22.30664062 43.80078125 C21.54931641 44.20683594 20.79199219 44.61289063 20.01171875 45.03125 C19.31522217 45.40830078 18.61872559 45.78535156 17.90112305 46.17382812 C16 47 16 47 13 47 C12.78234985 46.14341797 12.78234985 46.14341797 12.56030273 45.26953125 C8.68675321 30.0831649 4.47281583 15.02044173 0 0 Z " fill="#F89A09" transform="translate(151,33)"/>
<path d="M0 0 C1.36945692 2.73891384 0.62655128 3.81096537 -0.29296875 6.69921875 C-0.59170898 7.6543335 -0.89044922 8.60944824 -1.19824219 9.59350586 C-1.52469727 10.61452393 -1.85115234 11.63554199 -2.1875 12.6875 C-4.34443111 19.57567766 -6.4460257 26.44798388 -8.25 33.4375 C-9.54724067 38.44753294 -11.04473711 43.20960591 -13 48 C-13.70125 47.61328125 -14.4025 47.2265625 -15.125 46.828125 C-20.69832834 43.76885238 -26.29206196 40.80012055 -32 38 C-28.11687983 32.54840383 -23.87301099 27.57836102 -19.359375 22.640625 C-16.1875934 19.09075023 -13.21250371 15.39533909 -10.21875 11.6953125 C-6.9257499 7.69501308 -3.47871594 3.83890997 0 0 Z " fill="#EE8D0B" transform="translate(277,33)"/>
<path d="M0 0 C7.73474194 2.23312473 15.33720108 4.78602705 22.9375 7.4375 C24.59168945 8.01081055 24.59168945 8.01081055 26.27929688 8.59570312 C33.20859514 11.00358317 40.1134575 13.47248779 47 16 C45.74443498 18.59053335 44.4013701 21.03788613 42.8359375 23.453125 C42.43632812 24.071875 42.03671875 24.690625 41.625 25.328125 C41.2125 25.96234375 40.8 26.5965625 40.375 27.25 C39.95476562 27.8996875 39.53453125 28.549375 39.1015625 29.21875 C38.06954327 30.81368881 37.03501972 32.40700669 36 34 C33.14080064 32.7056614 31.11971358 31.35444251 28.94140625 29.1015625 C28.11479492 28.25851563 28.11479492 28.25851563 27.27148438 27.3984375 C26.70751953 26.81320313 26.14355469 26.22796875 25.5625 25.625 C22.50585153 22.47338087 19.5462414 19.42966102 16.08984375 16.7109375 C15.40019531 16.14632812 14.71054688 15.58171875 14 15 C14 14.34 14 13.68 14 13 C13.44828125 12.77441406 12.8965625 12.54882812 12.328125 12.31640625 C9.30047473 10.60446306 7.18674251 8.41342989 4.75 5.9375 C3.85796875 5.03902344 2.9659375 4.14054687 2.046875 3.21484375 C0 1 0 1 0 0 Z " fill="#F79509" transform="translate(105,76)"/>
<path d="M0 0 C-2.662342 2.69181275 -5.33066667 5.37762147 -8 8.0625 C-9.11568359 9.19075195 -9.11568359 9.19075195 -10.25390625 10.34179688 C-14.46350278 14.569696 -18.75839093 18.61534541 -23.28125 22.50610352 C-25.27304298 24.23732244 -27.15352312 26.05255485 -29 27.9375 C-29.5775 28.52402344 -30.155 29.11054687 -30.75 29.71484375 C-31.1625 30.13894531 -31.575 30.56304687 -32 31 C-35.90354222 29.69881926 -36.45338056 28.09616418 -38.5625 24.625 C-39.16191406 23.64789063 -39.76132812 22.67078125 -40.37890625 21.6640625 C-40.91386719 20.78492187 -41.44882812 19.90578125 -42 19 C-42.66 18.01 -43.32 17.02 -44 16 C-44 15.01 -44 14.02 -44 13 C-43.17910889 12.71801758 -42.35821777 12.43603516 -41.51245117 12.14550781 C-38.41273582 11.0802056 -35.31332774 10.01401809 -32.21411133 8.94726562 C-30.88284971 8.4892385 -29.55147299 8.03154576 -28.2199707 7.57421875 C-26.92652159 7.12991533 -25.63323656 6.68513392 -24.34011841 6.23986816 C-23.06013161 5.79920398 -21.77975632 5.35966657 -20.49899292 4.92126465 C-15.70271861 3.27069697 -10.97123909 1.47881092 -6.26293945 -0.40722656 C-3.75283496 -1.06474449 -2.41864133 -0.85449629 0 0 Z " fill="#EF8B0B" transform="translate(323,79)"/>
<path d="M0 0 C5.51316391 0 9.74005981 0.46287839 14.9375 1.8125 C22.09200596 3.59224356 29.24884958 5.02789012 36.51171875 6.2890625 C39.79779713 6.95878956 42.84738472 7.86680188 46 9 C46 9.33 46 9.66 46 10 C45.4330542 10.12528076 44.8661084 10.25056152 44.28198242 10.37963867 C33.14927937 12.84946564 22.06092015 15.38707933 11.08081055 18.4753418 C7.15165954 19.55411102 4.1378757 20 0 20 C0 13.4 0 6.8 0 0 Z " fill="#F5930E" transform="translate(297,132)"/>
<path d="M0 0 C2.56897537 2.56897537 2.56506551 4.19203925 3.1484375 7.7578125 C3.34735596 8.9341626 3.54627441 10.1105127 3.7512207 11.32250977 C3.95706787 12.57733154 4.16291504 13.83215332 4.375 15.125 C5.98750984 24.60535227 7.77402999 33.9133354 10.30078125 43.19140625 C11 46 11 46 11 49 C4.4 49 -2.2 49 -9 49 C-8.39914864 44.1931891 -7.79153399 39.54486636 -6.9140625 34.8046875 C-6.70676514 33.68231689 -6.49946777 32.55994629 -6.28588867 31.40356445 C-6.06779541 30.23913818 -5.84970215 29.07471191 -5.625 27.875 C-5.40239502 26.6789917 -5.17979004 25.4829834 -4.95043945 24.25073242 C-3.42943491 16.13705311 -1.83029815 8.05033577 0 0 Z " fill="#F79809" transform="translate(214,16)"/>
<path d="M0 0 C0.44730469 0.38671875 0.89460938 0.7734375 1.35546875 1.171875 C1.96003906 1.69265625 2.56460937 2.2134375 3.1875 2.75 C4.13882812 3.56984375 4.13882812 3.56984375 5.109375 4.40625 C6.68220486 5.73210658 8.30440766 6.99912076 9.9375 8.25 C10.618125 8.8275 11.29875 9.405 12 10 C12 10.66 12 11.32 12 12 C12.57524414 12.24927246 13.15048828 12.49854492 13.74316406 12.75537109 C16.32410072 14.17873923 18.04212237 15.81548786 20.109375 17.9140625 C20.86347656 18.67460937 21.61757813 19.43515625 22.39453125 20.21875 C23.17183594 21.0128125 23.94914062 21.806875 24.75 22.625 C25.54277344 23.42679688 26.33554687 24.22859375 27.15234375 25.0546875 C29.10614493 27.03202846 31.05512103 29.01388909 33 31 C29.42728486 32.19090505 28.47136656 31.72660666 24.984375 30.5234375 C23.98664063 30.18441406 22.98890625 29.84539062 21.9609375 29.49609375 C20.90132813 29.12613281 19.84171875 28.75617188 18.75 28.375 C17.13738281 27.82392578 17.13738281 27.82392578 15.4921875 27.26171875 C13.33285105 26.523816 11.17462953 25.78264193 9.01757812 25.03808594 C5.02114106 23.66325985 1.01207256 22.32833487 -3 21 C-5 20.33333333 -7 19.66666667 -9 19 C-8.38737369 16.17919621 -7.52845191 13.86191144 -6.15234375 11.328125 C-5.79462891 10.66425781 -5.43691406 10.00039062 -5.06835938 9.31640625 C-4.69517578 8.63449219 -4.32199219 7.95257813 -3.9375 7.25 C-3.56044922 6.55261719 -3.18339844 5.85523438 -2.79492188 5.13671875 C-1.86726612 3.42231698 -0.93416546 1.71086339 0 0 Z " fill="#F18D0B" transform="translate(294,173)"/>
<path d="M0 0 C13.125 -0.53571429 13.125 -0.53571429 16.6875 1.8125 C19.44817742 4.42395162 20.89611278 6.04423754 21.3125 9.875 C20.95390303 13.46096965 20.25502182 15.20066256 18 18 C12.23587351 20.98499408 6.34009989 20.12808283 0 20 C0 13.4 0 6.8 0 0 Z " fill="#F2F3F5" transform="translate(372,174)"/>
<path d="M0 0 C13.20644088 -0.49369872 13.20644088 -0.49369872 16.89453125 1.80078125 C19.78505804 4.82001425 20 6.86638956 20 11 C18.8069261 13.82570134 17.86427124 15.42315384 15.30859375 17.12890625 C12.20719074 18.299148 9.55388072 18.19107761 6.25 18.125 C3.15625 18.063125 3.15625 18.063125 0 18 C0 12.06 0 6.12 0 0 Z " fill="#FAFBFB" transform="translate(643,175)"/>
<path d="M0 0 C4.29 0 8.58 0 13 0 C13 20.79 13 41.58 13 63 C8.71 63 4.42 63 0 63 C0 42.21 0 21.42 0 0 Z M2 2 C2 21.47 2 40.94 2 61 C5.3 61 8.6 61 12 61 C12 41.53 12 22.06 12 2 C8.7 2 5.4 2 2 2 Z " fill="#153B63" transform="translate(660,73)"/>
<path d="M0 0 C4.62 0 9.24 0 14 0 C14.33 1.32 14.66 2.64 15 4 C14.34 3.67 13.68 3.34 13 3 C9.37 2.67 5.74 2.34 2 2 C2 21.47 2 40.94 2 61 C5.3 61 8.6 61 12 61 C12 48.13 12 35.26 12 22 C12.33 22 12.66 22 13 22 C13 35.53 13 49.06 13 63 C8.71 63 4.42 63 0 63 C0 42.21 0 21.42 0 0 Z " fill="#1D3962" transform="translate(685,73)"/>
<path d="M0 0 C12.21 0 24.42 0 37 0 C37 0.33 37 0.66 37 1 C25.12 1 13.24 1 1 1 C1.33 20.8 1.66 40.6 2 61 C13.22 61 24.44 61 36 61 C36 58.36 36 55.72 36 53 C28.74 53 21.48 53 14 53 C14 52.67 14 52.34 14 52 C21.92 52 29.84 52 38 52 C38 55.63 38 59.26 38 63 C25.46 63 12.92 63 0 63 C0 42.21 0 21.42 0 0 Z " fill="#3D6081" transform="translate(581,164)"/>
<path d="M0 0 C0.66 0.33 1.32 0.66 2 1 C0.96552734 1.81791016 0.96552734 1.81791016 -0.08984375 2.65234375 C-12.61416593 12.70272575 -22.63167274 22.13607468 -27 38 C-26.36578125 37.98839844 -25.7315625 37.97679687 -25.078125 37.96484375 C-15.03081267 37.86770123 -5.02880453 38.44504639 5 39 C5 39.33 5 39.66 5 40 C-6.22 40 -17.44 40 -29 40 C-27.14333187 25.14665495 -18.23067286 14.37201517 -7.17578125 4.69140625 C-4.86319941 2.89365412 -2.60503717 1.3435598 0 0 Z " fill="#DC8D0A" transform="translate(178,89)"/>
<path d="M0 0 C2.76390737 2.40339772 3.04065919 3.16263678 4 7 C-8.87 7 -21.74 7 -35 7 C-35.33 6.34 -35.66 5.68 -36 5 C-23.79 4.67 -11.58 4.34 1 4 C0.505 2.02 0.505 2.02 0 0 Z " fill="#0C3963" transform="translate(267,216)"/>
<path d="M0 0 C1.37562854 1.28965176 2.70766393 2.62689293 4 4 C4 4.66 4 5.32 4 6 C-8.87 6 -21.74 6 -35 6 C-35 5.34 -35 4.68 -35 4 C-23.12 3.67 -11.24 3.34 1 3 C0.505 1.515 0.505 1.515 0 0 Z " fill="#394D70" transform="translate(194,169)"/>
<path d="M0 0 C12.87 0 25.74 0 39 0 C39 0.99 39 1.98 39 3 C27.12 2.67 15.24 2.34 3 2 C2.67 2.66 2.34 3.32 2 4 C1.34 2.68 0.68 1.36 0 0 Z " fill="#1E456A" transform="translate(116,180)"/>
<path d="M0 0 C12.87 0 25.74 0 39 0 C39 0.99 39 1.98 39 3 C26.46 3 13.92 3 1 3 C0.67 2.01 0.34 1.02 0 0 Z " fill="#1D4469" transform="translate(208,180)"/>
<path d="M0 0 C0.99 1.32 1.98 2.64 3 4 C-10.2 4 -23.4 4 -37 4 C-37 3.34 -37 2.68 -37 2 C-24.79 2 -12.58 2 0 2 C0 1.34 0 0.68 0 0 Z " fill="#3F5576" transform="translate(241,171)"/>
<path d="M0 0 C12.87 0 25.74 0 39 0 C39.495 0.99 39.495 0.99 40 2 C27.13 2.33 14.26 2.66 1 3 C0.67 2.01 0.34 1.02 0 0 Z " fill="#1F466A" transform="translate(162,180)"/>
<path d="M0 0 C0.33 0 0.66 0 1 0 C1 8.91 1 17.82 1 27 C-2.96 27 -6.92 27 -11 27 C-11 26.34 -11 25.68 -11 25 C-7.7 25 -4.4 25 -1 25 C-1.00523682 24.27820557 -1.01047363 23.55641113 -1.01586914 22.81274414 C-1.03657358 19.56267151 -1.04963918 16.31261272 -1.0625 13.0625 C-1.07087891 11.92619141 -1.07925781 10.78988281 -1.08789062 9.61914062 C-1.09111328 8.53955078 -1.09433594 7.45996094 -1.09765625 6.34765625 C-1.10289307 5.34742432 -1.10812988 4.34719238 -1.11352539 3.31665039 C-1 1 -1 1 0 0 Z " fill="#02315D" transform="translate(608,109)"/>
<path d="M0 0 C1 2 1 2 0.22265625 4.6015625 C-0.16019531 5.59929688 -0.54304688 6.59703125 -0.9375 7.625 C-1.31777344 8.62789062 -1.69804687 9.63078125 -2.08984375 10.6640625 C-2.39019531 11.43492188 -2.69054687 12.20578125 -3 13 C-3.66 12.01 -4.32 11.02 -5 10 C-6.32 11.32 -7.64 12.64 -9 14 C-9.66 13.67 -10.32 13.34 -11 13 C-10.54109375 12.48050781 -10.0821875 11.96101563 -9.609375 11.42578125 C-6.31617392 7.68287834 -3.07047811 3.93021199 0 0 Z " fill="#DD7619" transform="translate(277,33)"/>
<path d="M0 0 C0.66 0.33 1.32 0.66 2 1 C1.60167969 1.51949219 1.20335937 2.03898437 0.79296875 2.57421875 C-3.19692689 7.82612517 -6.68747973 12.77398389 -9 19 C-9.66 19 -10.32 19 -11 19 C-9.70062418 14.60810974 -7.99867186 11.08270853 -5.5 7.25 C-4.8915625 6.30640625 -4.283125 5.3628125 -3.65625 4.390625 C-2 2 -2 2 0 0 Z " fill="#DB8B19" transform="translate(161,104)"/>
<path d="M0 0 C4.62 0 9.24 0 14 0 C13.67 1.32 13.34 2.64 13 4 C13 3.34 13 2.68 13 2 C9.37 2 5.74 2 2 2 C1.67 3.32 1.34 4.64 1 6 C0.67 4.02 0.34 2.04 0 0 Z " fill="#254064" transform="translate(483,164)"/>
<path d="M0 0 C-2.64 2.64 -5.28 5.28 -8 8 C-8.66 7.67 -9.32 7.34 -10 7 C-9.01 6.01 -8.02 5.02 -7 4 C-7.99 3.34 -8.98 2.68 -10 2 C-4.5 -1.125 -4.5 -1.125 0 0 Z " fill="#E0720E" transform="translate(323,79)"/>
<path d="M0 0 C1.35432675 1.31200404 2.68733482 2.64631404 4 4 C4 4.33 4 4.66 4 5 C-0.62 5 -5.24 5 -10 5 C-10 4.34 -10 3.68 -10 3 C-6.7 2.67 -3.4 2.34 0 2 C0 1.34 0 0.68 0 0 Z " fill="#153B62" transform="translate(673,222)"/>
<path d="M0 0 C4.13621084 3.3810038 7.81316569 6.66590534 11 11 C6.25 10.25 6.25 10.25 4 8 C4 7.34 4 6.68 4 6 C3.34 5.34 2.68 4.68 2 4 C1.34 3.34 0.68 2.68 0 2 C0 1.34 0 0.68 0 0 Z " fill="#E47308" transform="translate(316,194)"/>
<path d="M0 0 C3.3 0.99 6.6 1.98 10 3 C9.01 3.33 8.02 3.66 7 4 C6.67 4.99 6.34 5.98 6 7 C4.02 4.69 2.04 2.38 0 0 Z " fill="#F6982D" transform="translate(105,76)"/>
<path d="M0 0 C0.66 0 1.32 0 2 0 C0.70700306 2.88437779 -0.65941363 4.87219421 -3 7 C-3.66 6.67 -4.32 6.34 -5 6 C-3.38405168 3.95880212 -1.7143618 1.95927063 0 0 Z " fill="#E57F18" transform="translate(271,40)"/>
<path d="M0 0 C0.66 0 1.32 0 2 0 C3.2890625 1.53125 3.2890625 1.53125 4.625 3.5 C5.07101563 4.1496875 5.51703125 4.799375 5.9765625 5.46875 C6.31429687 5.9740625 6.65203125 6.479375 7 7 C5.35 7 3.7 7 2 7 C1.34 4.69 0.68 2.38 0 0 Z " fill="#F8971F" transform="translate(151,33)"/>
</svg>
